<svg width="206" height="227" viewBox="0 0 206 227" fill="none" xmlns="http://www.w3.org/2000/svg">
<path d="M101.173 202.151C157.049 202.151 202.346 156.898 202.346 101.076C202.346 45.2531 157.049 0 101.173 0C45.2967 0 0 45.2531 0 101.076C0 156.898 45.2967 202.151 101.173 202.151Z" fill="#E6E6E6"/>
<path d="M105.21 100.418L97.8097 106.622L144.949 162.747L152.35 156.543L105.21 100.418Z" fill="#C4C4C4"/>
<path d="M144.841 163.981L96.5736 106.512L105.32 99.1805L153.587 156.649L144.841 163.981ZM99.0482 106.729L145.058 161.509L151.113 156.433L105.103 101.653L99.0482 106.729Z" fill="#616161"/>
<path d="M172.06 204.92L137.862 164.204C136.655 162.767 136.843 160.627 138.281 159.423L150.232 149.404C151.67 148.198 153.812 148.386 155.017 149.823L189.215 190.539C192.038 193.901 191.6 198.913 188.235 201.733L183.265 205.9C179.9 208.72 174.883 208.282 172.06 204.92Z" fill="#9E9E9E"/>
<path d="M178.16 208.632C175.637 208.632 173.132 207.561 171.388 205.484L137.189 164.768C135.674 162.964 135.91 160.265 137.716 158.749L149.667 148.731C151.472 147.217 154.175 147.453 155.691 149.257L189.889 189.973C191.406 191.778 192.128 194.066 191.923 196.413C191.717 198.76 190.608 200.888 188.801 202.403L183.831 206.57C182.18 207.953 180.166 208.63 178.162 208.63L178.16 208.632ZM152.414 149.487C151.843 149.487 151.268 149.68 150.797 150.074L138.846 160.093C137.782 160.984 137.642 162.575 138.536 163.639L172.734 204.356C173.949 205.802 175.655 206.688 177.537 206.854C179.421 207.02 181.254 206.44 182.702 205.226L187.672 201.059C190.66 198.553 191.051 194.087 188.543 191.102L154.345 150.385C153.847 149.794 153.133 149.487 152.413 149.487H152.414Z" fill="#616161"/>
<path d="M98.7866 158.406C130.921 158.406 156.972 132.381 156.972 100.277C156.972 68.1733 130.921 42.148 98.7866 42.148C66.6518 42.148 40.6014 68.1733 40.6014 100.277C40.6014 132.381 66.6518 158.406 98.7866 158.406Z" fill="#E6E6E6"/>
<path d="M98.862 159.288C97.1256 159.288 95.3844 159.213 93.64 159.059C85.998 158.39 78.6769 156.292 71.8757 152.819C64.8355 149.225 58.6666 144.307 53.5425 138.205C48.4168 132.103 44.6423 125.181 42.3201 117.629C40.0782 110.336 39.2807 102.767 39.9483 95.1339C40.6158 87.5008 42.7181 80.1852 46.1941 73.3906C49.7921 66.3571 54.714 60.1942 60.8219 55.075C66.9297 49.9542 73.8593 46.1833 81.4179 43.8634C88.7181 41.6237 96.2943 40.8269 103.935 41.4938C111.577 42.1624 118.898 44.2611 125.699 47.7337C132.739 51.3282 138.908 56.2454 144.032 62.3474C149.158 68.4494 152.933 75.3722 155.255 82.9235C157.497 90.2167 158.294 97.7857 157.627 105.419C156.957 113.054 154.857 120.368 151.381 127.162C147.783 134.196 142.861 140.359 136.753 145.478C130.645 150.599 123.716 154.369 116.157 156.689C110.524 158.418 104.726 159.287 98.862 159.287V159.288ZM98.6887 43.0201C85.2517 43.0201 72.3668 47.6872 61.95 56.4201C37.7433 76.7125 34.5754 112.895 54.8873 137.078C66.206 150.554 82.4674 157.504 98.8331 157.505C111.837 157.505 124.906 153.12 135.623 144.136C147.349 134.306 154.542 120.502 155.876 105.268C157.209 90.034 152.526 75.1926 142.686 63.4777C132.847 51.7627 119.03 44.5769 103.781 43.2446C102.078 43.0955 100.377 43.0217 98.6871 43.0217L98.6887 43.0201Z" fill="#616161"/>
<path d="M131.901 133.361C150.19 115.089 150.19 85.466 131.901 67.1949C113.613 48.9237 83.9608 48.9237 65.672 67.1949C47.3833 85.466 47.3833 115.089 65.672 133.361C83.9608 151.632 113.613 151.632 131.901 133.361Z" fill="#FCFCFC"/>
<path d="M98.8701 147.944C97.4626 147.944 96.0488 147.883 94.6302 147.758C81.9346 146.648 70.433 140.666 62.2405 130.914C54.0496 121.161 50.15 108.805 51.2605 96.1231C52.371 83.4398 58.3585 71.9493 68.1205 63.7646C77.8825 55.5816 90.2507 51.6857 102.945 52.7952C115.64 53.9046 127.142 59.8864 135.334 69.639C143.525 79.3916 147.425 91.7478 146.314 104.43C145.204 117.113 139.216 128.603 129.454 136.788C120.784 144.057 110.055 147.944 98.8701 147.944ZM63.5869 129.785C71.4761 139.179 82.5557 144.941 94.7842 146.01C107.011 147.079 118.924 143.326 128.326 135.445C147.736 119.173 150.277 90.159 133.989 70.7677C117.702 51.3763 88.6603 48.8383 69.2503 65.1098C49.8402 81.3812 47.2998 110.395 63.5869 129.787V129.785Z" fill="#616161"/>
<path d="M180.204 190.215C179.774 190.215 179.346 190.035 179.043 189.684L151.19 157.545C150.634 156.904 150.703 155.934 151.345 155.379C151.987 154.825 152.958 154.894 153.513 155.535L181.366 187.674C181.922 188.315 181.853 189.285 181.211 189.84C180.92 190.091 180.562 190.215 180.204 190.215Z" fill="#E6E6E6"/>
<path d="M101.173 227C130.277 227 153.87 226.018 153.87 224.807C153.87 223.595 130.277 222.613 101.173 222.613C72.0693 222.613 48.4762 223.595 48.4762 224.807C48.4762 226.018 72.0693 227 101.173 227Z" fill="#C4C4C4"/>
</svg>
